<?xml version="1.0" standalone="no"?>
<!DOCTYPE svg PUBLIC "-//W3C//DTD SVG 20010904//EN"
 "http://www.w3.org/TR/2001/REC-SVG-20010904/DTD/svg10.dtd">
<svg version="1.0" xmlns="http://www.w3.org/2000/svg"
 width="35.000000pt" height="28.000000pt" viewBox="0 0 35.000000 28.000000"
 preserveAspectRatio="xMidYMid meet">

<g transform="translate(0.000000,28.000000) scale(0.100000,-0.100000)"
fill="#000000" stroke="none">
<path d="M240 273 c-23 -9 -60 -45 -60 -60 0 -23 -36 -14 -48 12 -7 15 -20 25
-32 25 -12 0 -25 -10 -32 -25 -8 -18 -19 -25 -40 -25 l-28 0 0 -100 0 -100
100 0 100 0 0 64 0 65 25 -13 c79 -41 158 67 94 129 -27 25 -56 36 -79 28z
m-120 -53 c0 -13 -7 -20 -20 -20 -13 0 -20 7 -20 20 0 13 7 20 20 20 13 0 20
-7 20 -20z m167 -5 c3 -9 -2 -24 -12 -34 -16 -18 -15 -20 2 -24 10 -3 4 -5
-14 -6 -36 -1 -42 9 -18 29 8 7 15 16 15 21 0 5 -7 6 -15 3 -9 -4 -15 0 -15
10 0 21 48 22 57 1z m-227 -45 c0 -5 -4 -10 -10 -10 -5 0 -10 -4 -10 -10 0 -5
9 -10 20 -10 13 0 20 7 20 20 0 13 7 20 20 20 13 0 20 -7 20 -20 0 -13 7 -20
20 -20 11 0 20 5 20 10 0 6 -4 10 -10 10 -5 0 -10 5 -10 10 0 6 9 10 20 10 18
0 20 -7 20 -80 l0 -80 -80 0 -80 0 0 80 c0 73 2 80 20 80 11 0 20 -4 20 -10z"/>
</g>
</svg>
