<?xml version="1.0" standalone="no"?>
<!DOCTYPE svg PUBLIC "-//W3C//DTD SVG 20010904//EN"
 "http://www.w3.org/TR/2001/REC-SVG-20010904/DTD/svg10.dtd">
<svg version="1.0" xmlns="http://www.w3.org/2000/svg"
 width="25.000000pt" height="26.000000pt" viewBox="0 0 25.000000 26.000000"
 preserveAspectRatio="xMidYMid meet">

<g transform="translate(0.000000,26.000000) scale(0.100000,-0.100000)"
fill="#000000" stroke="none">
<path d="M59 242 c-70 -36 -68 -130 3 -165 32 -16 40 -16 70 -4 32 13 34 13
71 -27 31 -33 35 -35 18 -10 -11 17 -27 36 -35 43 -13 11 -13 17 0 47 12 29
12 39 0 68 -15 37 -23 44 -66 56 -20 6 -38 3 -61 -8z m101 -24 c48 -52 12
-138 -57 -138 -74 0 -111 83 -61 137 29 31 89 32 118 1z"/>
</g>
</svg>
